<?xml version="1.0" standalone="no"?>
<!DOCTYPE svg PUBLIC "-//W3C//DTD SVG 20010904//EN"
 "http://www.w3.org/TR/2001/REC-SVG-20010904/DTD/svg10.dtd">
<svg version="1.0" xmlns="http://www.w3.org/2000/svg"
 width="366.000000pt" height="366.000000pt" viewBox="0 0 366.000000 366.000000"
 preserveAspectRatio="xMidYMid meet">
<metadata>
Created by potrace 1.14, written by Peter Selinger 2001-2017
</metadata>
<g transform="translate(0.000000,366.000000) scale(0.100000,-0.100000)"
fill="#000000" stroke="none">
<path d="M1520 3515 c-14 -8 -45 -17 -70 -21 -91 -14 -177 -67 -290 -178 -58
-57 -132 -122 -166 -144 -66 -44 -118 -98 -129 -134 -4 -13 -25 -48 -46 -78
-43 -62 -134 -266 -149 -337 -6 -25 -20 -59 -32 -76 -40 -56 -79 -194 -90
-320 -9 -104 -8 -133 10 -250 12 -72 24 -157 26 -187 5 -44 40 -171 53 -189 2
-3 10 4 18 15 12 14 14 33 9 73 -5 48 -4 53 11 47 9 -3 17 -6 18 -6 1 0 2 -61
2 -136 -1 -128 0 -137 19 -144 18 -6 23 -2 32 30 6 21 14 69 18 108 4 39 21
110 37 159 48 138 56 181 58 293 3 174 14 218 81 330 149 246 211 301 430 378
121 42 213 55 370 49 143 -5 194 -13 330 -54 290 -86 483 -201 545 -323 83
-164 143 -409 155 -625 5 -77 14 -174 20 -215 7 -41 9 -94 6 -117 -5 -42 11
-72 33 -59 5 4 12 -2 16 -13 3 -11 12 -22 20 -25 8 -3 15 -16 15 -28 0 -22 0
-22 18 -3 30 32 45 98 32 145 -8 31 -7 47 6 77 9 22 19 89 24 158 5 66 16 152
24 191 9 39 20 115 27 170 6 54 17 126 25 159 36 156 3 356 -117 704 -49 144
-65 172 -149 270 -79 92 -241 183 -450 254 -146 49 -173 51 -335 26 -101 -16
-123 -14 -194 15 -53 22 -80 26 -155 26 -59 -1 -100 -6 -116 -15z"/>
<path d="M1408 2413 c-89 -4 -98 -8 -75 -32 10 -11 5 -12 -25 -7 -21 4 -39 2
-43 -4 -3 -5 -1 -10 4 -10 6 0 11 -4 11 -10 0 -5 -7 -7 -15 -5 -8 3 -22 7 -30
10 -25 8 -1 45 25 38 12 -3 20 0 20 7 0 9 -10 11 -32 6 -18 -4 -50 -9 -70 -13
-21 -3 -38 -10 -38 -15 0 -6 -7 -8 -15 -4 -9 3 -15 0 -15 -10 0 -8 4 -13 9 -9
5 3 12 1 15 -4 3 -5 21 -8 39 -6 18 2 60 -6 93 -17 116 -41 268 -57 279 -30 6
17 34 15 41 -3 9 -22 50 -18 74 7 30 33 24 60 -20 81 -8 4 -26 14 -40 22 -14
8 -43 14 -65 13 -22 -1 -79 -4 -127 -5z"/>
<path d="M2180 2321 c-75 -9 -100 -18 -100 -37 0 -8 -6 -14 -13 -14 -27 0 -60
-74 -45 -103 7 -13 -1 -29 -32 -66 -39 -46 -41 -52 -35 -93 5 -31 22 -65 58
-113 46 -61 66 -78 155 -129 l102 -58 34 16 c19 9 39 16 45 16 6 0 16 10 22
22 11 20 8 25 -27 55 -36 30 -37 33 -15 33 16 0 21 4 17 15 -4 11 2 15 22 16
15 0 36 3 47 5 11 3 44 6 72 7 l52 1 -15 24 c-16 24 -74 83 -111 113 -11 9
-37 22 -57 29 -20 6 -36 14 -36 17 0 11 77 -9 123 -33 51 -26 64 -17 20 14
-37 25 -49 29 -165 53 -66 13 -106 27 -120 41 -11 11 -17 22 -14 26 8 7 186
21 291 22 44 0 87 5 95 10 13 8 13 10 -2 10 -10 0 -15 5 -12 13 6 17 -7 27
-71 60 -57 29 -172 40 -285 28z m110 -247 c0 -14 -3 -14 -15 -4 -8 7 -15 14
-15 16 0 2 7 4 15 4 8 0 15 -7 15 -16z m130 -113 c0 -5 9 -11 20 -14 33 -8 23
-27 -15 -27 -35 0 -40 5 -29 34 7 17 24 22 24 7z"/>
<path d="M1398 2191 c-8 -9 -13 -22 -10 -29 2 -7 -3 -12 -11 -12 -21 0 -42
-27 -25 -32 7 -3 -5 -8 -26 -12 -59 -11 -216 -95 -216 -115 0 -5 19 -9 41 -9
50 -1 130 -18 184 -41 21 -9 59 -16 82 -16 28 0 43 -4 43 -12 0 -17 11 -16 45
1 37 19 56 50 53 83 -3 25 0 28 25 28 24 -1 27 3 27 33 0 51 -14 68 -83 100
-109 51 -112 52 -129 33z m-130 -155 c3 -12 -1 -17 -10 -14 -7 3 -15 13 -16
22 -3 12 1 17 10 14 7 -3 15 -13 16 -22z m-18 -48 c0 -11 -18 -10 -43 3 -32
17 -32 18 -11 34 17 12 21 12 36 -8 10 -12 18 -25 18 -29z"/>
<path d="M1573 1523 c-7 -2 -13 -11 -13 -18 0 -19 73 -29 102 -14 22 12 22 13
3 17 -11 2 -24 8 -29 13 -11 10 -43 11 -63 2z"/>
<path d="M2101 1491 c-12 -16 -21 -33 -21 -37 0 -4 -12 -21 -27 -36 -21 -22
-23 -28 -10 -28 21 0 97 -79 97 -101 0 -18 60 -70 94 -82 21 -8 21 -8 -13 85
-25 67 -27 118 -7 157 18 34 9 49 -35 61 -49 14 -56 13 -78 -19z"/>
<path d="M1884 1475 l-29 -27 27 7 c15 4 29 2 32 -4 4 -6 18 -11 31 -11 13 0
27 -4 30 -10 11 -17 42 -11 48 9 7 27 -23 52 -71 58 -32 4 -43 1 -68 -22z"/>
<path d="M1298 1463 c-21 -15 -41 -38 -44 -51 -3 -12 -17 -25 -30 -28 -14 -4
-39 -26 -56 -50 -17 -24 -34 -44 -38 -44 -14 0 -50 -79 -50 -109 0 -39 25 -42
34 -3 11 43 64 113 123 162 59 48 106 112 101 136 -2 12 -11 9 -40 -13z"/>
<path d="M1771 1182 c-8 -15 -7 -23 4 -32 18 -15 22 -13 27 19 4 30 -17 39
-31 13z"/>
<path d="M1840 1190 c0 -5 5 -10 11 -10 5 0 7 5 4 10 -3 6 -8 10 -11 10 -2 0
-4 -4 -4 -10z"/>
<path d="M2287 1162 c34 -35 43 -39 43 -19 0 22 -14 35 -45 43 l-30 7 32 -31z"/>
<path d="M1160 1135 c-9 -10 -10 -22 -4 -36 9 -19 10 -18 21 10 12 34 2 49
-17 26z"/>
<path d="M1520 1130 c0 -5 7 -10 15 -10 8 0 15 5 15 10 0 6 -7 10 -15 10 -8 0
-15 -4 -15 -10z"/>
<path d="M1849 1124 c-11 -13 -25 -15 -77 -11 -84 8 -81 -15 4 -25 94 -11 135
-20 161 -33 14 -8 31 -11 38 -8 15 5 39 -32 30 -46 -3 -5 -2 -16 1 -24 7 -18
102 -12 143 9 46 25 67 18 99 -33 16 -27 33 -58 37 -70 9 -31 31 -29 39 3 7
25 -8 87 -24 109 -4 6 -11 24 -14 41 l-7 31 -77 -5 c-42 -2 -82 -9 -89 -14 -9
-7 -21 -3 -39 11 -15 12 -33 21 -41 21 -7 0 -25 8 -40 17 -14 9 -43 17 -63 18
-21 1 -45 7 -53 13 -11 10 -17 9 -28 -4z m208 -80 c-3 -3 -12 -4 -19 -1 -8 3
-5 6 6 6 11 1 17 -2 13 -5z"/>
<path d="M1260 1120 c-27 -17 75 -87 155 -107 19 -4 20 -1 17 36 -4 38 -2 40
40 61 l43 21 -35 -5 c-97 -15 -168 -18 -186 -8 -11 6 -26 7 -34 2z"/>
<path d="M1840 956 l-95 -11 55 -9 c59 -8 64 -8 95 -3 45 9 75 20 75 28 0 10
-2 10 -130 -5z"/>
<path d="M1861 261 c-8 -5 -20 -7 -27 -4 -15 6 -74 -18 -74 -29 0 -5 -19 -8
-42 -8 -24 -1 -54 -7 -67 -14 -22 -12 -20 -13 30 -19 126 -15 213 -2 225 35 3
11 0 25 -6 33 -14 17 -20 18 -39 6z m-154 -57 c-3 -3 -12 -4 -19 -1 -8 3 -5 6
6 6 11 1 17 -2 13 -5z"/>
<path d="M616 76 l-35 -71 121 -3 c66 -1 122 -1 125 1 2 2 1 35 -3 74 l-7 69
-83 1 -84 1 -34 -72z"/>
</g>
</svg>
